<svg fill="none" xmlns="http://www.w3.org/2000/svg" viewBox="0 0 288 432">
  <path d="M1.466 2.1995h285.0678v427.602H1.466z"/>
  <path d="M144 216c0-39.359 31.907-71.267 71.267-71.267 39.359 0 71.267 31.908 71.267 71.267 0 39.36-31.908 71.267-71.267 71.267C175.907 287.267 144 255.36 144 216Z" fill="#1ABCFE"/>
  <path d="M1.466 358.534c0-39.359 31.9073-71.267 71.267-71.267H144v71.267c0 39.36-31.907 71.267-71.267 71.267-39.3597 0-71.267-31.907-71.267-71.267Z" fill="#0ACF83"/>
  <path d="M144 2.1995V144.733h71.267c39.36 0 71.267-31.907 71.267-71.2666s-31.907-71.267-71.267-71.267H144Z" fill="#FF7262"/>
  <path d="M1.466 73.4664c0 39.3596 31.9073 71.2666 71.267 71.2666H144V2.1994H72.733c-39.3597 0-71.267 31.9073-71.267 71.267Z" fill="#F24E1E"/>
  <path d="M1.466 216c0 39.36 31.9073 71.267 71.267 71.267H144V144.733H72.733c-39.3597 0-71.267 31.908-71.267 71.267Z" fill="#A259FF"/>
</svg>
