<?xml version="1.0" standalone="yes"?>
<svg xmlns="http://www.w3.org/2000/svg" width="288" height="288">
<path style="fill:#ebebeb; stroke:none;" d="M6 84.3333C-2.64301 87.3344 0 99.917 0 107L0 177C0 184.491 -3.12324 199.499 6 202.667C12.3411 204.868 22.2954 203 29 203L80 203L221 203L263 203C268.585 203 276.707 204.505 282 202.667C290.643 199.666 288 187.083 288 180L288 110C288 102.509 291.123 87.5011 282 84.3333C275.659 82.1316 265.705 84 259 84L208 84L67 84L25 84C19.4147 84 11.2931 82.4955 6 84.3333z"/>
<path style="fill:#f9ad01; stroke:none;" d="M191 113L191 114L210 133L216 140L210 147L192.333 166L199 174L200 174L219 155L226 149.667L233 156L251 174L252 174L258.667 166L241 147L235 140L241 133L260 114C251.157 98.7258 241.159 115.841 233 124C231.289 125.711 227.753 130.869 225 130.333C219.193 129.204 210.208 116.208 206 112C204.191 110.191 201.015 105.453 198 106.5C195.414 107.398 192.9 111.1 191 113z"/>
<path style="fill:#010101; stroke:none;" d="M141 107L141 154L124 137L123 137L115 145L115 146L138 169L147 176.667L156 169L179 146L179 145L171 138.333L153 155L153 107L141 107z"/>
<path style="fill:#010101; stroke:none;" d="M97 110L72 135L63 143L54 135L29 111L29 175L40 175L40 139L56 154L63 159.667L70 154L86 138L86 175L98 175L98 128L97 110z"/>
</svg>
