<svg xmlns="http://www.w3.org/2000/svg" preserveAspectRatio="xMidYMid" viewBox="0 0 256 256">
  <path d="M119.6168.0689c-.5505.05-2.3022.2252-3.8788.3503-36.3605 3.2777-70.4187 22.894-91.9898 53.044C11.7365 70.227 4.054 89.2429 1.1512 109.3846.1251 116.4154 0 118.4922 0 128.025s.1251 11.6096 1.1511 18.6404c6.9568 48.065 41.1652 88.4484 87.5605 103.4108 8.3081 2.6773 17.0667 4.5038 27.0264 5.6047 3.8788.4253 20.6452.4253 24.524 0 17.1918-1.9016 31.756-6.1551 46.12-13.4862 2.2022-1.126 2.6276-1.4262 2.3273-1.6764-.2002-.1501-9.5844-12.7356-20.8454-27.9482l-20.47-27.648-25.65-37.9564c-14.1138-20.8673-25.7251-37.9315-25.8252-37.9315-.1001-.025-.2002 16.839-.2503 37.431-.075 36.055-.1 37.5062-.5505 38.3569-.6506 1.226-1.1511 1.7264-2.2022 2.2769-.8007.4003-1.5014.4754-5.2801.4754h-4.3292l-1.1512-.7256c-.7507-.4754-1.3012-1.101-1.6766-1.8265l-.5255-1.126.05-50.1666.0751-50.1917.7758-.9758c.4004-.5254 1.2512-1.201 1.8518-1.5262 1.026-.5004 1.4264-.5505 5.7556-.5505 5.105 0 5.9558.2002 7.2821 1.6514.3754.4003 14.264 21.3177 30.8802 46.5136 16.6162 25.1959 39.3384 59.5994 50.4993 76.4884l20.2698 30.7005 1.026-.6755c9.0838-5.905 18.6932-14.312 26.3007-23.0692 16.1908-18.5904 26.626-41.2592 30.1294-65.4293 1.026-7.0308 1.1511-9.1075 1.1511-18.6404 0-9.533-.1251-11.6097-1.1511-18.6405-6.9568-48.0649-41.1652-88.4484-87.5605-103.4108-8.183-2.6522-16.8915-4.4787-26.651-5.5796-2.4024-.2502-18.9436-.5255-21.0206-.3253ZM172.018 77.483c1.2012.6005 2.1771 1.7515 2.5275 2.9525.2002.6505.2502 14.562.2002 45.913l-.0751 44.9874-7.9328-12.16-7.9577-12.1602v-32.7021c0-21.1426.1-33.0274.2502-33.6029.4004-1.4012 1.2762-2.502 2.4774-3.1526 1.026-.5254 1.4014-.5755 5.3302-.5755 3.7036 0 4.3543.05 5.18.5004Z"/>
</svg>
