<svg width="100" height="100" fill="none" xmlns="http://www.w3.org/2000/svg">
  <mask id="a" mask-type="alpha" maskUnits="userSpaceOnUse" x="0" y="0" width="100" height="100">
    <path fill-rule="evenodd" clip-rule="evenodd" d="M70.9119 99.3171c1.575.6136 3.3709.5743 4.9606-.1907l20.5883-9.9067C98.6242 88.1787 100 85.9892 100 83.5872V16.4133c0-2.402-1.3757-4.5915-3.5391-5.6325L75.8725.8738c-2.0863-1.004-4.5279-.758-6.359.5731a6.2422 6.2422 0 0 0-.7445.6365L29.3551 38.0415 12.1872 25.0096c-1.5982-1.2131-3.8336-1.1137-5.3179.2365L1.363 30.2549c-1.8156 1.6515-1.8176 4.5078-.0045 6.1621l14.8886 13.5831L1.3585 63.5832c-1.8131 1.6542-1.811 4.5106.0045 6.1621l5.5063 5.0088c1.4843 1.3502 3.7197 1.4496 5.3179.2364l17.1679-13.0318 39.4139 35.958a6.2167 6.2167 0 0 0 2.1429 1.4004Zm4.1033-72.0182L45.1091 50.0001l29.9061 22.7011V27.2989Z" fill="#fff"/>
  </mask>
  <g mask="url(#a)">
    <path d="M96.4614 10.7962 75.8569.8755C73.4719-.2728 70.6217.2116 68.75 2.0833L1.2986 63.5832c-1.8143 1.6541-1.8122 4.5105.0045 6.162l5.5096 5.0088c1.4852 1.3502 3.722 1.4496 5.3211.2365l81.2271-61.6206C96.086 11.3026 100 13.2462 100 16.6667v-.2392a6.2501 6.2501 0 0 0-3.5386-5.6313Z" fill="#0065A9"/>
    <g filter="url(#b)">
      <path d="m96.4614 89.2038-20.6045 9.9207c-2.385 1.1485-5.2352.6639-7.1069-1.2078L1.2986 36.4169c-1.8143-1.6542-1.8122-4.5106.0045-6.1621l5.5096-5.0088c1.4852-1.3502 3.722-1.4496 5.3211-.2365l81.2271 61.6206C96.086 88.6974 100 86.7538 100 83.3334v.2392a6.25 6.25 0 0 1-3.5386 5.6312Z" fill="#007ACC"/>
    </g>
    <g filter="url(#c)">
      <path d="M75.8578 99.1263c-2.3857 1.1477-5.2359.6622-7.1078-1.2097 2.3064 2.3064 6.25.6729 6.25-2.5888V4.6721c0-3.2617-3.9436-4.8952-6.25-2.5888C70.6219.2114 73.4721-.2737 75.8578.8736l20.6009 9.9071A6.25 6.25 0 0 1 100 16.4132v67.1739a6.2499 6.2499 0 0 1-3.5414 5.6325l-20.6008 9.9067Z" fill="#1F9CF0"/>
    </g>
    <path fill-rule="evenodd" clip-rule="evenodd" d="M70.8511 99.3171c1.575.6135 3.371.5742 4.9606-.1907L96.4 89.2197c2.1634-1.041 3.5392-3.2305 3.5392-5.6326V16.4133c0-2.4021-1.3757-4.5916-3.5391-5.6326L75.8117.8737c-2.0862-1.0039-4.5279-.758-6.359.5732a6.2432 6.2432 0 0 0-.7445.6364L29.2943 38.0415 12.1264 25.0096c-1.5981-1.2132-3.8336-1.1137-5.3178.2364l-5.5064 5.0088c-1.8155 1.6516-1.8176 4.5079-.0045 6.1621L16.1864 50 1.2978 63.5832c-1.8132 1.6542-1.8111 4.5105.0044 6.162l5.5064 5.0088c1.4842 1.3502 3.7197 1.4496 5.3178.2365l17.1679-13.0319 39.4139 35.9581a6.2182 6.2182 0 0 0 2.1429 1.4004Zm4.1033-72.0182L45.0483 50l29.9061 22.7012V27.2989Z" fill="url(#d)" style="mix-blend-mode:overlay" opacity=".25"/>
  </g>
  <defs>
    <filter id="b" x="-8.3941" y="15.8291" width="116.727" height="92.2456" filterUnits="userSpaceOnUse" color-interpolation-filters="sRGB">
      <feFlood flood-opacity="0" result="BackgroundImageFix"/>
      <feColorMatrix in="SourceAlpha" values="0 0 0 0 0 0 0 0 0 0 0 0 0 0 0 0 0 0 127 0"/>
      <feOffset/>
      <feGaussianBlur stdDeviation="4.1667"/>
      <feColorMatrix values="0 0 0 0 0 0 0 0 0 0 0 0 0 0 0 0 0 0 0.25 0"/>
      <feBlend mode="overlay" in2="BackgroundImageFix" result="effect1_dropShadow"/>
      <feBlend in="SourceGraphic" in2="effect1_dropShadow" result="shape"/>
    </filter>
    <filter id="c" x="60.4167" y="-8.0756" width="47.9167" height="116.151" filterUnits="userSpaceOnUse" color-interpolation-filters="sRGB">
      <feFlood flood-opacity="0" result="BackgroundImageFix"/>
      <feColorMatrix in="SourceAlpha" values="0 0 0 0 0 0 0 0 0 0 0 0 0 0 0 0 0 0 127 0"/>
      <feOffset/>
      <feGaussianBlur stdDeviation="4.1667"/>
      <feColorMatrix values="0 0 0 0 0 0 0 0 0 0 0 0 0 0 0 0 0 0 0.25 0"/>
      <feBlend mode="overlay" in2="BackgroundImageFix" result="effect1_dropShadow"/>
      <feBlend in="SourceGraphic" in2="effect1_dropShadow" result="shape"/>
    </filter>
    <linearGradient id="d" x1="49.9392" y1=".2578" x2="49.9392" y2="99.7423" gradientUnits="userSpaceOnUse">
      <stop stop-color="#fff"/>
      <stop offset="1" stop-color="#fff" stop-opacity="0"/>
    </linearGradient>
  </defs>
</svg>
